<svg width="414" height="94" viewBox="0 0 414 94" fill="none" xmlns="http://www.w3.org/2000/svg">
<path d="M129.744 0L111.924 26.5365C102.511 23.0136 92.2137 22.5206 82.5007 25.1276C74.4431 27.3051 67.1196 31.5702 61.2869 37.4823L55.6661 29.0291C54.7182 27.6317 53.4385 26.4852 51.9388 25.6898C50.4392 24.8945 48.7653 24.4745 47.0636 24.4666C45.3618 24.4587 43.684 24.8631 42.1769 25.6444C40.6698 26.4258 39.3791 27.5604 38.418 28.9489L74.1879 82.748L79.6815 91.0062C80.0209 91.5108 80.4809 91.9248 81.0208 92.2116C81.5607 92.4983 82.1638 92.649 82.7766 92.6503C83.3895 92.6516 83.9933 92.5034 84.5344 92.2189C85.0755 91.9344 85.5372 91.5223 85.8788 91.0192L91.4097 82.7828L134.015 19.3144C135.045 17.7775 135.752 16.0517 136.095 14.2395C136.438 12.4272 136.41 10.5653 136.012 8.76407C135.613 6.96287 134.854 5.25906 133.777 3.75361C132.7 2.24816 131.329 0.971767 129.744 0ZM82.8317 69.8732L70.1586 50.8124C74.289 45.4013 80.1162 41.4958 86.7294 39.7062C92.0939 38.2716 97.7456 38.2559 103.118 39.6606L82.8317 69.8732Z" fill="#CC1F1F"/>
<path d="M36.6994 70.7473L23.5046 50.9018L17.2481 41.4949C16.3005 40.097 15.0209 38.9501 13.5212 38.1544C12.0216 37.3587 10.3475 36.9386 8.64558 36.9307C6.94364 36.9227 5.26567 37.3273 3.75849 38.109C2.25131 38.8907 0.960839 40.0257 0 41.4147L14.8148 63.6964L28.06 83.6156L33.5405 91.8781C33.88 92.3825 34.3402 92.7964 34.8802 93.083C35.4202 93.3695 36.0233 93.52 36.6362 93.5211C37.249 93.5222 37.8527 93.3738 38.3937 93.0891C38.9347 92.8044 39.3964 92.3922 39.7378 91.8889L45.2686 83.6525L55.0195 69.1303L46.47 56.1926L36.6994 70.7473Z" fill="#CC1F1F"/>
<path d="M204.7 37.0447C204.696 37.5079 204.637 37.9691 204.525 38.4188C204.408 38.9058 204.291 39.3205 204.174 39.663C203.091 42.7524 201.898 45.8497 200.596 48.955C199.294 52.0603 197.874 55.1287 196.337 58.1603C194.801 61.1948 193.154 64.1707 191.398 67.0882C189.641 70.0056 187.768 72.8233 185.779 75.5414C185.518 75.9404 185.164 76.2718 184.747 76.5081C184.267 76.7712 183.75 76.9591 183.212 77.0651C182.54 77.2024 181.857 77.2815 181.171 77.3014C180.41 77.3303 179.533 77.3447 178.541 77.3447C177.312 77.3447 176.302 77.3086 175.511 77.2364C174.889 77.2004 174.276 77.0778 173.689 76.8722C173.321 76.7464 173.01 76.4952 172.812 76.1634C172.637 75.8083 172.54 75.4205 172.527 75.0255L170.508 51.4216L159.703 74.941C159.504 75.3738 159.245 75.7777 158.936 76.1418C158.601 76.4915 158.176 76.7441 157.706 76.8722C157.005 77.0717 156.284 77.1939 155.556 77.2364C154.663 77.3086 153.499 77.3447 152.066 77.3447C150.661 77.3447 149.512 77.3086 148.619 77.2364C147.919 77.2006 147.226 77.0783 146.557 76.8722C146.149 76.7551 145.793 76.5054 145.546 76.1634C145.342 75.8172 145.229 75.426 145.217 75.0255L141.835 40.3913C141.805 40.1023 141.783 39.7735 141.769 39.4051C141.754 39.0366 141.747 38.7078 141.747 38.4188C141.734 37.9688 141.793 37.5196 141.922 37.088C142.065 36.718 142.348 36.4177 142.711 36.2514C143.272 35.9946 143.874 35.8348 144.489 35.7788C145.546 35.6645 146.609 35.6145 147.672 35.6293C148.814 35.6293 149.721 35.6582 150.395 35.716C150.926 35.7447 151.451 35.8461 151.954 36.0173C152.261 36.1121 152.519 36.3191 152.677 36.596C152.801 36.8728 152.861 37.1734 152.853 37.476L154.74 65.6295L154.696 66.1453L154.959 65.6295L167.867 37.4651C167.999 37.1439 168.184 36.8465 168.415 36.5851C168.681 36.3133 169.014 36.1139 169.382 36.0064C169.924 35.8411 170.484 35.74 171.05 35.7052C171.738 35.6474 172.595 35.6185 173.619 35.6185C174.497 35.6093 175.375 35.6448 176.25 35.7247C176.786 35.7695 177.316 35.8704 177.83 36.0259C178.143 36.1093 178.42 36.2903 178.62 36.5418C178.769 36.7668 178.86 37.0254 178.883 37.2939L181.165 65.5341L181.208 66.0066L181.472 65.5341C182.554 63.7026 184.742 59.4391 184.742 59.4391C184.742 59.4391 186.915 54.8766 187.969 52.4425C189.024 50.0084 190.019 47.5223 190.955 44.9755C191.891 42.4287 192.739 39.9252 193.5 37.4651C193.542 37.1253 193.697 36.8085 193.939 36.5635C194.24 36.2979 194.602 36.107 194.993 36.0064C195.58 35.8425 196.184 35.7415 196.793 35.7052C197.523 35.6474 198.46 35.6185 199.603 35.6185C200.686 35.6185 201.563 35.6474 202.234 35.7052C202.761 35.7373 203.283 35.8237 203.792 35.9631C204.075 36.0265 204.328 36.1786 204.516 36.3966C204.643 36.589 204.707 36.8151 204.7 37.0447ZM239.602 75.6693C239.518 75.9911 239.343 76.2829 239.098 76.5107C238.854 76.7386 238.548 76.8932 238.218 76.9567C236.949 77.2664 235.641 77.3963 234.334 77.3426C233.426 77.3426 232.688 77.3137 232.118 77.2559C231.647 77.2193 231.182 77.1254 230.734 76.9762C230.448 76.8984 230.205 76.7133 230.055 76.4604C229.95 76.2093 229.927 75.9318 229.989 75.6671L231.219 69.5309C230.671 70.5982 229.961 71.5757 229.112 72.4289C228.092 73.4888 226.941 74.4186 225.688 75.1967C224.319 76.0508 222.852 76.742 221.319 77.2559C219.73 77.7983 218.061 78.0738 216.38 78.0708C214.365 78.1408 212.362 77.7288 210.542 76.87C209.046 76.1144 207.765 75.0004 206.815 73.6297C205.856 72.2176 205.178 70.6373 204.818 68.9739C204.417 67.1702 204.219 65.3282 204.226 63.4815C204.241 61.5034 204.417 59.5296 204.753 57.5794C205.113 55.414 205.656 53.2824 206.377 51.207C207.112 49.0831 208.053 47.0347 209.187 45.0904C210.298 43.1685 211.68 41.4126 213.291 39.8754C214.888 38.3572 216.743 37.1297 218.772 36.2492C220.984 35.3182 223.369 34.8574 225.773 34.8967C228.013 34.8557 230.228 35.3659 232.218 36.3814C234.166 37.4334 235.847 38.9081 237.136 40.6947L237.837 37.3048C237.921 36.9829 238.096 36.6912 238.34 36.4633C238.585 36.2355 238.89 36.0808 239.22 36.0173C240.49 35.7076 241.798 35.5778 243.105 35.6315C243.837 35.6237 244.569 35.6592 245.297 35.7377C245.769 35.7838 246.233 35.885 246.68 36.0389C246.962 36.1252 247.203 36.3081 247.36 36.5548C247.48 36.7869 247.511 37.0539 247.448 37.3069L239.602 75.6693ZM234.159 48.7924C233.293 47.39 232.133 46.1881 230.756 45.2681C229.462 44.4665 227.958 44.056 226.431 44.0868C225.247 44.0778 224.081 44.3768 223.051 44.9538C222.005 45.5431 221.082 46.3218 220.328 47.2492C219.499 48.2702 218.799 49.3875 218.243 50.5763C217.64 51.8438 217.141 53.1572 216.75 54.5038C216.358 55.8537 216.065 57.23 215.874 58.622C215.692 59.8945 215.597 61.1776 215.589 62.4628C215.585 63.2825 215.651 64.101 215.786 64.9099C215.9 65.6336 216.145 66.331 216.509 66.969C216.848 67.557 217.332 68.0511 217.914 68.406C218.595 68.788 219.37 68.9742 220.153 68.9435C221.546 68.9124 222.907 68.5201 224.099 67.8056C225.519 66.9864 226.795 65.9423 227.874 64.7148C229.098 63.3344 230.138 61.8047 230.969 60.1631C231.871 58.4062 232.528 56.5367 232.922 54.6056L234.159 48.7924ZM284.831 39.8776C284.821 40.6276 284.741 41.375 284.59 42.1101C284.437 42.9112 284.224 43.7002 283.954 44.4705C283.729 45.1415 283.395 45.7719 282.965 46.3367C282.824 46.5538 282.634 46.7351 282.408 46.8658C282.183 46.9964 281.93 47.0728 281.67 47.0888C281.196 47.0753 280.743 46.892 280.396 46.5729C279.987 46.229 279.482 45.8425 278.881 45.4133C278.179 44.9299 277.42 44.5332 276.621 44.232C275.496 43.8389 274.306 43.6567 273.114 43.6945C271.69 43.6704 270.284 44.0101 269.032 44.6807C267.836 45.335 266.772 46.2004 265.893 47.234C264.982 48.3076 264.235 49.5074 263.676 50.7952C263.098 52.1046 262.614 53.4524 262.227 54.8289C261.864 56.1087 261.592 57.4125 261.416 58.7304C261.268 59.8045 261.187 60.8867 261.175 61.9707C261.041 63.8576 261.594 65.7297 262.734 67.2486C263.364 67.889 264.129 68.383 264.976 68.6949C265.823 69.0068 266.729 69.1287 267.629 69.0519C269.059 69.0839 270.484 68.8735 271.842 68.4299C272.889 68.0721 273.896 67.6117 274.85 67.0557C275.684 66.5543 276.401 66.1034 277 65.7032C277.477 65.346 278.05 65.137 278.647 65.1028C278.78 65.0959 278.912 65.129 279.025 65.1979C279.139 65.2668 279.229 65.3682 279.283 65.4886C279.433 65.8412 279.5 66.2228 279.48 66.6048C279.468 67.2167 279.41 67.8268 279.304 68.4299C279.188 69.1524 279.034 69.8893 278.844 70.6407C278.666 71.3464 278.447 72.0412 278.186 72.7215C277.982 73.292 277.652 73.8103 277.22 74.2387C276.65 74.7313 276.024 75.1561 275.354 75.5045C274.415 76.0156 273.43 76.4393 272.412 76.7703C271.23 77.1601 270.019 77.4615 268.791 77.672C267.45 77.9038 266.092 78.0184 264.731 78.0145C262.701 78.1732 260.659 77.9274 258.727 77.2914C256.795 76.6555 255.011 75.6425 253.483 74.3124C252.155 72.8218 251.141 71.0841 250.501 69.2012C249.861 67.3183 249.608 65.3281 249.756 63.3471C249.771 61.4202 249.94 59.4975 250.26 57.5968C250.611 55.4556 251.162 53.3513 251.906 51.3111C252.682 49.178 253.675 47.1286 254.87 45.1944C256.074 43.2324 257.578 41.4661 259.327 39.9578C261.138 38.4087 263.201 37.1751 265.43 36.3099C267.98 35.3517 270.693 34.8853 273.421 34.9357C274.567 34.934 275.712 35.0202 276.845 35.1936C277.885 35.3494 278.911 35.5864 279.914 35.9024C280.774 36.1702 281.604 36.5224 282.393 36.9536C282.968 37.2524 283.506 37.6161 283.996 38.0374C284.282 38.2805 284.513 38.5803 284.675 38.9174C284.788 39.2248 284.841 39.5506 284.831 39.8776ZM319.768 75.6693C319.684 75.9911 319.509 76.2829 319.264 76.5107C319.02 76.7386 318.715 76.8932 318.385 76.9567C317.115 77.2664 315.807 77.3963 314.5 77.3426C313.592 77.3426 312.854 77.3137 312.284 77.2559C311.813 77.2193 311.348 77.1254 310.9 76.9762C310.614 76.8986 310.371 76.7135 310.221 76.4604C310.116 76.2093 310.093 75.9318 310.155 75.6671L311.385 69.5309C310.837 70.5982 310.127 71.5757 309.278 72.4289C308.258 73.4888 307.107 74.4186 305.854 75.1967C304.485 76.0508 303.018 76.742 301.485 77.2559C299.896 77.7983 298.227 78.0738 296.546 78.0708C294.531 78.1408 292.528 77.7288 290.708 76.87C289.212 76.1144 287.931 75.0004 286.981 73.6297C286.022 72.2175 285.344 70.6373 284.984 68.9739C284.583 67.1681 284.384 65.3239 284.393 63.475C284.408 61.4969 284.583 59.5231 284.919 57.5729C285.279 55.4075 285.822 53.2759 286.543 51.2005C287.278 49.0766 288.219 47.0282 289.353 45.0839C290.464 43.162 291.846 41.4061 293.457 39.8689C295.054 38.3507 296.909 37.1232 298.938 36.2427C301.15 35.3117 303.535 34.8509 305.939 34.8902C308.182 34.8464 310.4 35.3552 312.393 36.3706C314.341 37.4226 316.022 38.8973 317.31 40.6839L318.012 37.2939C318.096 36.9721 318.27 36.6803 318.515 36.4525C318.76 36.2246 319.065 36.07 319.395 36.0064C320.665 35.6968 321.973 35.5669 323.28 35.6206C324.012 35.6129 324.744 35.6484 325.472 35.7268C325.943 35.773 326.408 35.8741 326.855 36.0281C327.137 36.1143 327.378 36.2973 327.535 36.544C327.654 36.7761 327.686 37.0431 327.622 37.2961L319.768 75.6693ZM314.325 48.7924C313.458 47.3896 312.296 46.1876 310.918 45.2681C309.623 44.4665 308.12 44.056 306.593 44.0868C305.409 44.0777 304.243 44.3767 303.212 44.9538C302.167 45.5431 301.243 46.3218 300.49 47.2492C299.66 48.2702 298.96 49.3875 298.405 50.5763C297.802 51.8438 297.302 53.1572 296.912 54.5038C296.519 55.8537 296.226 57.23 296.035 58.622C295.853 59.8945 295.758 61.1776 295.75 62.4628C295.747 63.2825 295.813 64.101 295.948 64.9099C296.062 65.6336 296.307 66.331 296.671 66.969C297.01 67.557 297.493 68.0511 298.076 68.406C298.757 68.788 299.532 68.9742 300.314 68.9435C301.708 68.9124 303.068 68.5201 304.26 67.8056C305.681 66.9864 306.956 65.9423 308.035 64.7148C309.259 63.3344 310.3 61.8048 311.131 60.1631C312.032 58.4062 312.689 56.5367 313.084 54.6056L314.325 48.7924ZM371.88 37.1617C371.838 37.7425 371.633 38.3001 371.289 38.7721C370.711 39.6089 370.057 40.3917 369.335 41.1109L355.507 53.8578L364.506 72.3118C364.763 72.8942 364.969 73.4976 365.12 74.1152C365.22 74.5084 365.279 74.9108 365.295 75.316C365.302 75.6392 365.202 75.9557 365.01 76.2176C364.757 76.5213 364.422 76.747 364.043 76.8679C363.448 77.0686 362.828 77.191 362.2 77.232C361.424 77.3043 360.45 77.3404 359.28 77.3404C358.109 77.3404 357.165 77.3115 356.447 77.2537C355.881 77.2246 355.32 77.1233 354.779 76.9524C354.442 76.8468 354.14 76.6546 353.902 76.3954C353.7 76.1408 353.557 75.8445 353.486 75.5284L344.224 55.3577L340.096 75.6281C340.009 75.9132 339.851 76.172 339.636 76.3802C339.345 76.6341 338.999 76.8181 338.625 76.9177C338.045 77.0848 337.449 77.193 336.847 77.2407C336.116 77.3129 335.223 77.3491 334.168 77.3491C333.281 77.3572 332.395 77.321 331.511 77.2407C330.968 77.197 330.431 77.096 329.909 76.9394C329.6 76.8604 329.329 76.6781 329.142 76.4235C329.008 76.1964 328.968 75.9267 329.032 75.6714L340.622 19.1911C340.681 18.9036 340.818 18.6371 341.017 18.4194C341.299 18.145 341.646 17.9459 342.027 17.8407C342.606 17.6603 343.202 17.5383 343.805 17.4766C344.702 17.3819 345.604 17.3392 346.506 17.3487C347.393 17.3383 348.281 17.381 349.163 17.4766C349.711 17.5291 350.249 17.6515 350.765 17.8407C351.075 17.9412 351.339 18.146 351.511 18.4194C351.629 18.659 351.66 18.9316 351.598 19.1911L344.75 52.7871L359.414 37.4651C359.692 37.1355 360.009 36.84 360.358 36.5851C360.751 36.3165 361.19 36.1205 361.654 36.0064C362.279 35.8472 362.919 35.7463 363.563 35.7052C364.31 35.6474 365.24 35.6185 366.352 35.6185C367.435 35.6185 368.342 35.6474 369.074 35.7052C369.654 35.7367 370.228 35.8304 370.787 35.9848C371.114 36.0645 371.412 36.2361 371.644 36.4789C371.802 36.676 371.885 36.9212 371.88 37.1725V37.1617ZM405.289 75.6584C405.235 75.9374 405.106 76.197 404.917 76.4105C404.676 76.6562 404.373 76.8342 404.04 76.9264C403.546 77.0756 403.039 77.1765 402.525 77.2277C401.767 77.3067 401.005 77.3429 400.243 77.3361C399.503 77.3443 398.763 77.3081 398.027 77.2277C397.569 77.1823 397.119 77.0811 396.687 76.9264C396.417 76.8402 396.19 76.6558 396.052 76.4105C395.948 76.1717 395.94 75.9027 396.03 75.6584L397.216 69.4356C396.548 70.5459 395.737 71.5659 394.804 72.47C393.732 73.5237 392.547 74.459 391.27 75.2596C389.919 76.1132 388.466 76.7982 386.945 77.2992C385.405 77.8127 383.79 78.0741 382.164 78.073C380.392 78.1194 378.627 77.8356 376.962 77.2364C375.652 76.7562 374.475 75.9772 373.527 74.9627C372.643 73.9662 371.997 72.7851 371.639 71.5077C371.233 70.0833 371.034 68.6091 371.047 67.1294C371.049 66.1321 371.115 65.1359 371.245 64.1469C371.376 63.1354 371.544 62.0979 371.749 61.0344L376.572 37.3004C376.63 37.0137 376.775 36.7513 376.988 36.5483C377.277 36.2968 377.624 36.1196 377.999 36.0324C378.581 35.881 379.176 35.7802 379.777 35.7312C380.507 35.6589 381.4 35.6235 382.456 35.625C383.342 35.6161 384.229 35.6515 385.113 35.7312C385.656 35.7749 386.193 35.8759 386.715 36.0324C387.023 36.1114 387.295 36.2937 387.482 36.5483C387.616 36.7754 387.656 37.0452 387.592 37.3004L382.938 60.3039C382.788 60.955 382.678 61.6144 382.609 62.2785C382.538 62.9344 382.501 63.5935 382.499 64.2531C382.493 64.8806 382.559 65.5067 382.697 66.1193C382.81 66.6354 383.026 67.124 383.332 67.5564C383.617 67.9508 384.004 68.2622 384.453 68.458C384.974 68.6715 385.535 68.7742 386.099 68.7593C387.431 68.7205 388.727 68.3274 389.852 67.6214C391.251 66.7821 392.504 65.7244 393.561 64.4894C394.803 63.052 395.858 61.466 396.7 59.7686C397.642 57.8951 398.343 55.9123 398.785 53.8665L402.122 37.3004C402.153 37.0095 402.294 36.741 402.516 36.5483C402.816 36.2998 403.169 36.1232 403.549 36.0324C404.131 35.881 404.726 35.7802 405.327 35.7312C406.057 35.6589 406.95 35.6235 408.006 35.625C408.892 35.6161 409.779 35.6515 410.662 35.7312C411.213 35.7766 411.757 35.8776 412.287 36.0324C412.599 36.1033 412.873 36.2874 413.054 36.5483C413.174 36.7804 413.205 37.0474 413.142 37.3004L405.289 75.6584Z" fill="#CC1F1F"/>
</svg>
