<svg width="986" height="224" viewBox="0 0 986 224" fill="none" xmlns="http://www.w3.org/2000/svg">
<path d="M309.622 0.170776L267.096 63.4977C244.633 55.0907 220.059 53.9141 196.879 60.1356C177.651 65.3318 160.174 75.5101 146.255 89.6189L132.841 69.446C130.579 66.1112 127.525 63.3752 123.946 61.4771C120.368 59.5791 116.373 58.5769 112.312 58.558C108.251 58.5391 104.247 59.5042 100.65 61.3689C97.0539 63.2336 93.9739 65.9411 91.6802 69.2547L177.042 197.641L190.152 217.349C190.962 218.553 192.06 219.541 193.348 220.225C194.636 220.909 196.075 221.269 197.538 221.272C199.001 221.275 200.441 220.922 201.733 220.243C203.024 219.564 204.126 218.58 204.941 217.38L218.14 197.724L319.813 46.2629C322.271 42.5951 323.96 38.4768 324.778 34.152C325.597 29.8271 325.529 25.3838 324.579 21.0854C323.628 16.787 321.815 12.721 319.246 9.12842C316.677 5.53581 313.404 2.48981 309.622 0.170776ZM197.669 166.917L167.426 121.43C177.283 108.517 191.189 99.1966 206.971 94.9259C219.773 91.5025 233.26 91.4649 246.081 94.8171L197.669 166.917Z" fill="#CC1F1F"/>
<path d="M87.5799 169.003L56.0919 121.643L41.1613 99.1945C38.9 95.8586 35.8463 93.1216 32.2674 91.2228C28.6886 89.3239 24.6937 88.3212 20.6321 88.3023C16.5706 88.2835 12.5663 89.2489 8.96953 91.1143C5.37278 92.9798 2.2932 95.6883 0.000244141 99.003L35.3544 152.176L66.9628 199.712L80.0415 219.429C80.8518 220.633 81.95 221.621 83.2386 222.305C84.5273 222.989 85.9665 223.348 87.4291 223.35C88.8916 223.353 90.3322 222.999 91.6233 222.319C92.9143 221.64 94.0161 220.656 94.8308 219.455L108.03 199.8L131.299 165.144L110.897 134.269L87.5799 169.003Z" fill="#CC1F1F"/>
<path d="M488.497 88.5742C488.487 89.6797 488.346 90.7803 488.078 91.8536C487.799 93.0157 487.52 94.0054 487.241 94.8226C484.657 102.195 481.811 109.587 478.703 116.997C475.596 124.408 472.208 131.73 468.539 138.965C464.873 146.206 460.944 153.308 456.752 160.27C452.56 167.233 448.091 173.957 443.344 180.443C442.72 181.395 441.875 182.186 440.88 182.75C439.736 183.378 438.501 183.826 437.218 184.079C435.614 184.407 433.984 184.596 432.347 184.643C430.53 184.712 428.438 184.747 426.07 184.747C423.137 184.747 420.727 184.66 418.84 184.488C417.357 184.402 415.893 184.11 414.493 183.619C413.614 183.319 412.872 182.719 412.4 181.928C411.982 181.08 411.75 180.155 411.72 179.212L406.902 122.883L381.116 179.01C380.64 180.043 380.024 181.007 379.285 181.876C378.486 182.711 377.471 183.313 376.35 183.619C374.677 184.095 372.956 184.387 371.218 184.488C369.087 184.66 366.311 184.747 362.89 184.747C359.538 184.747 356.797 184.66 354.666 184.488C352.994 184.403 351.341 184.111 349.743 183.619C348.769 183.34 347.92 182.744 347.331 181.928C346.845 181.101 346.575 180.168 346.546 179.212L338.474 96.5606C338.405 95.8709 338.352 95.0864 338.317 94.2071C338.283 93.3278 338.265 92.5433 338.265 91.8536C338.234 90.7797 338.375 89.7077 338.684 88.6777C339.024 87.7947 339.7 87.0781 340.567 86.6811C341.906 86.0684 343.341 85.687 344.81 85.5535C347.332 85.2806 349.869 85.1614 352.406 85.1966C355.13 85.1966 357.295 85.2656 358.903 85.4035C360.171 85.4721 361.422 85.714 362.623 86.1225C363.355 86.3487 363.972 86.8427 364.349 87.5035C364.645 88.164 364.788 88.8815 364.768 89.6036L369.272 156.789L369.167 158.02L369.795 156.789L400.598 89.5777C400.913 88.811 401.355 88.1014 401.906 87.4777C402.542 86.8288 403.336 86.3532 404.213 86.0966C405.506 85.702 406.843 85.4607 408.194 85.3776C409.837 85.2397 411.88 85.1707 414.325 85.1707C416.421 85.1489 418.516 85.2335 420.603 85.4242C421.882 85.5311 423.147 85.7721 424.375 86.1432C425.12 86.3422 425.781 86.7739 426.258 87.3742C426.616 87.9112 426.832 88.5283 426.886 89.1691L432.332 156.562L432.436 157.689L433.064 156.562C435.649 152.191 440.869 142.017 440.869 142.017C440.869 142.017 446.054 131.128 448.57 125.32C451.087 119.511 453.462 113.578 455.695 107.5C457.929 101.423 459.954 95.4485 461.769 89.5777C461.87 88.7666 462.238 88.0107 462.815 87.4259C463.536 86.7922 464.398 86.3366 465.332 86.0966C466.733 85.7055 468.173 85.4644 469.627 85.3776C471.371 85.2397 473.606 85.1707 476.333 85.1707C478.918 85.1707 481.01 85.2397 482.611 85.3776C483.869 85.4543 485.116 85.6606 486.331 85.9932C487.004 86.1445 487.61 86.5075 488.057 87.0276C488.36 87.4869 488.513 88.0265 488.497 88.5742ZM571.786 180.748C571.586 181.516 571.169 182.213 570.585 182.756C570.001 183.3 569.273 183.669 568.485 183.821C565.455 184.56 562.334 184.87 559.215 184.741C557.05 184.741 555.287 184.672 553.926 184.535C552.802 184.447 551.694 184.223 550.625 183.867C549.943 183.682 549.361 183.24 549.004 182.636C548.752 182.037 548.698 181.375 548.847 180.743L551.781 166.1C550.475 168.647 548.779 170.979 546.754 173.015C544.319 175.545 541.574 177.764 538.582 179.621C535.315 181.659 531.815 183.308 528.156 184.535C524.365 185.829 520.381 186.486 516.37 186.479C511.56 186.646 506.781 185.663 502.438 183.614C498.868 181.811 495.81 179.152 493.545 175.881C491.256 172.511 489.638 168.74 488.779 164.77C487.822 160.466 487.348 156.07 487.367 151.663C487.403 146.943 487.822 142.233 488.622 137.579C489.481 132.411 490.778 127.324 492.499 122.371C494.252 117.303 496.498 112.415 499.205 107.775C501.857 103.188 505.154 98.998 508.999 95.3295C512.809 91.7066 517.237 88.7771 522.077 86.6759C527.357 84.4543 533.05 83.3546 538.787 83.4483C544.131 83.3504 549.417 84.568 554.167 86.9914C558.815 89.502 562.826 93.0212 565.901 97.2847L567.575 89.1949C567.776 88.4268 568.192 87.7306 568.777 87.1869C569.361 86.6431 570.089 86.2741 570.876 86.1225C573.907 85.3836 577.028 85.0736 580.146 85.2018C581.894 85.1833 583.641 85.268 585.378 85.4552C586.503 85.5654 587.611 85.8067 588.679 86.1742C589.351 86.3799 589.926 86.8166 590.301 87.4052C590.586 87.9592 590.661 88.5964 590.51 89.2001L571.786 180.748ZM558.797 116.609C556.732 113.262 553.963 110.394 550.678 108.199C547.588 106.286 544.001 105.306 540.356 105.38C537.53 105.358 534.748 106.072 532.289 107.449C529.795 108.855 527.59 110.713 525.792 112.926C523.813 115.363 522.142 118.029 520.816 120.866C519.377 123.891 518.185 127.025 517.254 130.239C516.316 133.46 515.617 136.745 515.161 140.066C514.728 143.103 514.5 146.165 514.481 149.232C514.473 151.188 514.631 153.142 514.952 155.072C515.225 156.799 515.81 158.463 516.678 159.986C517.488 161.389 518.641 162.568 520.032 163.415C521.656 164.327 523.507 164.771 525.373 164.698C528.698 164.624 531.946 163.687 534.79 161.982C538.18 160.027 541.224 157.536 543.798 154.606C546.719 151.312 549.202 147.662 551.185 143.744C553.337 139.552 554.905 135.09 555.846 130.482L558.797 116.609ZM679.722 95.3347C679.699 97.1245 679.506 98.9082 679.146 100.662C678.781 102.574 678.274 104.457 677.629 106.295C677.093 107.897 676.296 109.401 675.27 110.749C674.933 111.267 674.478 111.7 673.941 112.011C673.404 112.323 672.8 112.506 672.178 112.544C671.047 112.511 669.967 112.074 669.139 111.313C668.162 110.492 666.957 109.569 665.524 108.545C663.849 107.392 662.037 106.445 660.13 105.726C657.445 104.788 654.606 104.353 651.76 104.443C648.362 104.386 645.007 105.197 642.019 106.797C639.166 108.358 636.627 110.424 634.527 112.89C632.354 115.452 630.572 118.315 629.238 121.389C627.859 124.513 626.704 127.73 625.78 131.015C624.912 134.069 624.265 137.18 623.845 140.325C623.49 142.888 623.298 145.471 623.269 148.058C622.949 152.561 624.268 157.028 626.989 160.653C628.492 162.181 630.32 163.36 632.34 164.105C634.36 164.849 636.523 165.14 638.671 164.957C642.083 165.033 645.484 164.531 648.725 163.472C651.223 162.618 653.627 161.52 655.903 160.193C657.894 158.996 659.605 157.92 661.035 156.965C662.172 156.113 663.54 155.614 664.964 155.532C665.281 155.516 665.596 155.595 665.867 155.759C666.138 155.924 666.352 156.166 666.481 156.453C666.839 157.294 667 158.205 666.952 159.117C666.925 160.577 666.785 162.033 666.533 163.472C666.254 165.196 665.888 166.955 665.435 168.748C665.01 170.432 664.486 172.09 663.865 173.714C663.378 175.075 662.59 176.312 661.558 177.334C660.199 178.51 658.704 179.524 657.106 180.355C654.866 181.575 652.515 182.586 650.086 183.376C647.263 184.306 644.374 185.025 641.443 185.528C638.244 186.081 635.002 186.354 631.755 186.345C626.91 186.724 622.038 186.137 617.427 184.619C612.816 183.102 608.56 180.684 604.912 177.51C601.743 173.953 599.325 169.806 597.797 165.313C596.27 160.819 595.666 156.07 596.019 151.343C596.055 146.744 596.458 142.156 597.222 137.62C598.058 132.51 599.374 127.489 601.151 122.62C603.001 117.529 605.371 112.639 608.224 108.023C611.097 103.341 614.684 99.1256 618.859 95.5261C623.18 91.8293 628.105 88.8856 633.423 86.8208C639.51 84.5342 645.982 83.4211 652.492 83.5414C655.228 83.5373 657.96 83.7431 660.664 84.1569C663.146 84.5286 665.595 85.0942 667.988 85.8483C670.04 86.4875 672.022 87.3279 673.904 88.357C675.276 89.07 676.559 89.9379 677.729 90.9432C678.412 91.5234 678.964 92.2388 679.35 93.0433C679.62 93.777 679.746 94.5545 679.722 95.3347ZM763.095 180.748C762.895 181.516 762.478 182.213 761.894 182.756C761.31 183.3 760.582 183.669 759.794 183.821C756.764 184.56 753.643 184.87 750.524 184.741C748.358 184.741 746.595 184.672 745.235 184.535C744.111 184.447 743.003 184.223 741.934 183.867C741.252 183.682 740.67 183.24 740.312 182.636C740.061 182.037 740.006 181.375 740.156 180.743L743.09 166.1C741.784 168.647 740.088 170.979 738.063 173.015C735.628 175.545 732.883 177.764 729.891 179.621C726.624 181.659 723.124 183.308 719.465 184.535C715.674 185.829 711.69 186.486 707.679 186.479C702.869 186.646 698.09 185.663 693.747 183.614C690.176 181.811 687.119 179.152 684.854 175.881C682.565 172.511 680.947 168.74 680.088 164.77C679.129 160.461 678.656 156.06 678.676 151.648C678.711 146.927 679.131 142.217 679.931 137.563C680.79 132.396 682.087 127.309 683.808 122.356C685.561 117.287 687.807 112.399 690.514 107.759C693.166 103.173 696.463 98.9825 700.308 95.314C704.118 91.6911 708.546 88.7616 713.386 86.6604C718.666 84.4387 724.358 83.3391 730.095 83.4328C735.446 83.3283 740.739 84.5424 745.497 86.9656C750.144 89.4761 754.156 92.9953 757.231 97.2589L758.905 89.1691C759.106 88.401 759.522 87.7048 760.106 87.161C760.691 86.6173 761.419 86.2482 762.206 86.0966C765.236 85.3577 768.358 85.0477 771.476 85.1759C773.224 85.1575 774.97 85.2421 776.708 85.4293C777.833 85.5395 778.941 85.7809 780.009 86.1483C780.681 86.354 781.256 86.7907 781.63 87.3794C781.916 87.9333 781.99 88.5705 781.84 89.1742L763.095 180.748ZM750.106 116.609C748.038 113.261 745.265 110.393 741.976 108.199C738.886 106.286 735.299 105.306 731.654 105.38C728.828 105.358 726.046 106.072 723.587 107.449C721.093 108.855 718.889 110.713 717.09 112.926C715.111 115.363 713.44 118.029 712.115 120.866C710.675 123.891 709.484 127.025 708.552 130.239C707.615 133.46 706.916 136.745 706.46 140.066C706.026 143.103 705.799 146.165 705.78 149.232C705.772 151.188 705.929 153.142 706.25 155.072C706.523 156.799 707.108 158.463 707.977 159.986C708.786 161.389 709.939 162.568 711.33 163.415C712.955 164.327 714.805 164.771 716.672 164.698C719.997 164.624 723.244 163.687 726.088 161.982C729.479 160.027 732.522 157.536 735.097 154.606C738.018 151.312 740.5 147.662 742.483 143.744C744.635 139.552 746.203 135.09 747.145 130.482L750.106 116.609ZM887.457 88.8535C887.357 90.2395 886.868 91.5703 886.045 92.6967C884.666 94.6935 883.106 96.5616 881.384 98.2779L848.384 128.697L869.859 172.736C870.473 174.126 870.963 175.566 871.324 177.04C871.563 177.978 871.703 178.938 871.742 179.905C871.758 180.676 871.519 181.432 871.062 182.057C870.459 182.782 869.658 183.32 868.755 183.609C867.333 184.088 865.854 184.38 864.355 184.478C862.503 184.65 860.181 184.736 857.387 184.736C854.593 184.736 852.34 184.667 850.628 184.529C849.275 184.46 847.937 184.218 846.647 183.81C845.843 183.558 845.12 183.1 844.554 182.481C844.071 181.873 843.731 181.166 843.56 180.412L821.457 132.277L811.607 180.65C811.4 181.331 811.022 181.948 810.508 182.445C809.815 183.051 808.99 183.49 808.096 183.728C806.712 184.126 805.291 184.384 803.854 184.498C802.11 184.671 799.979 184.757 797.461 184.757C795.344 184.776 793.228 184.69 791.12 184.498C789.823 184.394 788.541 184.153 787.296 183.779C786.56 183.591 785.913 183.156 785.465 182.548C785.145 182.006 785.052 181.363 785.204 180.753L812.862 45.9683C813.004 45.2823 813.329 44.6464 813.804 44.1269C814.476 43.472 815.306 42.9968 816.216 42.7458C817.596 42.3153 819.018 42.0242 820.458 41.8769C822.599 41.6509 824.751 41.549 826.903 41.5717C829.021 41.5467 831.139 41.6486 833.244 41.8769C834.551 42.0023 835.837 42.2943 837.068 42.7458C837.807 42.9856 838.436 43.4744 838.847 44.1269C839.129 44.6986 839.203 45.349 839.056 45.9683L822.713 126.142L857.706 89.5777C858.37 88.7909 859.127 88.0859 859.961 87.4777C860.899 86.8366 861.946 86.3687 863.053 86.0966C864.545 85.7165 866.071 85.4758 867.609 85.3776C869.391 85.2397 871.61 85.1707 874.264 85.1707C876.848 85.1707 879.014 85.2397 880.761 85.3776C882.144 85.4528 883.514 85.6765 884.847 86.0449C885.629 86.2351 886.34 86.6446 886.892 87.2242C887.269 87.6944 887.469 88.2796 887.457 88.8794V88.8535ZM967.185 180.722C967.055 181.388 966.748 182.008 966.295 182.517C965.72 183.103 964.998 183.528 964.203 183.748C963.024 184.104 961.814 184.345 960.588 184.467C958.779 184.656 956.961 184.742 955.142 184.726C953.375 184.746 951.609 184.659 949.853 184.467C948.762 184.359 947.688 184.117 946.656 183.748C946.011 183.543 945.469 183.103 945.139 182.517C944.891 181.947 944.873 181.305 945.087 180.722L947.917 165.872C946.324 168.522 944.39 170.956 942.163 173.114C939.604 175.628 936.776 177.86 933.73 179.771C930.505 181.808 927.038 183.442 923.408 184.638C919.732 185.863 915.878 186.487 911.998 186.485C907.77 186.595 903.559 185.918 899.584 184.488C896.458 183.342 893.649 181.483 891.386 179.062C889.276 176.684 887.736 173.866 886.882 170.817C885.913 167.418 885.438 163.9 885.469 160.369C885.473 157.989 885.63 155.611 885.94 153.251C886.254 150.837 886.655 148.361 887.144 145.824L898.653 89.1846C898.792 88.5003 899.139 87.8743 899.647 87.3897C900.336 86.7894 901.164 86.3666 902.058 86.1587C903.449 85.7972 904.868 85.5566 906.301 85.4397C908.045 85.2673 910.176 85.1828 912.694 85.1862C914.81 85.1651 916.927 85.2497 919.034 85.4397C920.331 85.544 921.613 85.785 922.859 86.1587C923.595 86.3472 924.242 86.7822 924.69 87.3897C925.009 87.9317 925.103 88.5754 924.951 89.1846L913.845 144.08C913.487 145.634 913.225 147.208 913.06 148.793C912.89 150.358 912.802 151.931 912.799 153.505C912.783 155.002 912.941 156.496 913.269 157.958C913.539 159.19 914.055 160.356 914.786 161.388C915.466 162.329 916.39 163.072 917.46 163.539C918.704 164.049 920.042 164.294 921.389 164.258C924.567 164.166 927.661 163.228 930.345 161.543C933.684 159.54 936.673 157.016 939.196 154.068C942.161 150.638 944.678 146.853 946.688 142.803C948.935 138.332 950.607 133.6 951.663 128.718L959.625 89.1846C959.699 88.4904 960.036 87.8495 960.567 87.3897C961.281 86.7967 962.124 86.3753 963.031 86.1587C964.421 85.7972 965.841 85.5566 967.274 85.4397C969.017 85.2673 971.148 85.1828 973.667 85.1862C975.783 85.1651 977.899 85.2497 980.007 85.4397C981.321 85.5482 982.619 85.7891 983.883 86.1587C984.628 86.3277 985.282 86.7671 985.715 87.3897C986 87.9437 986.075 88.5809 985.924 89.1846L967.185 180.722Z" fill="black"/>
</svg>
